<svg height='100px' width='100px'  fill="#979797" xmlns="http://www.w3.org/2000/svg" xmlns:xlink="http://www.w3.org/1999/xlink" version="1.1" x="0px" y="0px" viewBox="0 0 100 100" enable-background="new 0 0 100 100" xml:space="preserve">
    <path d="M73.691,47.72V14.97c0-5.497-4.473-9.97-9.969-9.97H31.824c-1.18,0-2.52,0.575-3.336,1.431L6.315,29.758  C5.528,30.583,5,31.904,5,33.045V77.98c0,5.498,4.473,9.971,9.97,9.971h39.484C58.947,92.499,64.914,95,71.296,95  C84.367,95,95,84.367,95,71.296C95,59.143,85.703,48.934,73.691,47.72z M28.481,13.396v13.021c0,1.811-1.473,3.284-3.283,3.284  H12.982L28.481,13.396z M14.97,83.157c-2.854,0-5.178-2.323-5.178-5.179V34.494h15.406c4.453,0,8.076-3.623,8.076-8.077V9.792  h30.449c2.854,0,5.178,2.323,5.178,5.178v32.75c-12.01,1.214-21.308,11.423-21.308,23.576c0,4.19,1.097,8.263,3.188,11.861H14.97z   M71.296,90.208c-10.426,0-18.909-8.483-18.909-18.912c0-10.426,8.483-18.909,18.909-18.909c10.429,0,18.912,8.483,18.912,18.909  C90.208,81.725,81.725,90.208,71.296,90.208z"></path>
    <path d="M80.25,68.9h-6.559v-6.558c0-1.321-1.073-2.397-2.396-2.397c-1.321,0-2.396,1.076-2.396,2.397V68.9h-6.557  c-1.32,0-2.396,1.074-2.396,2.396c0,1.322,1.076,2.396,2.396,2.396H68.9v6.559c0,1.322,1.074,2.396,2.396,2.396  c1.322,0,2.396-1.074,2.396-2.396v-6.559h6.559c1.32,0,2.396-1.073,2.396-2.396C82.646,69.975,81.57,68.9,80.25,68.9z"></path>
</svg>