<svg height='100px' width='100px'  fill="#979797" xmlns="http://www.w3.org/2000/svg" data-name="Layer 1" viewBox="0 0 512 512" x="0px" y="0px">
    <path d="M453.24,151.51h-31V77.11a18.52,18.52,0,0,0-5.48-13.21L380.26,27.46A18.64,18.64,0,0,0,367.75,22l-.46,0H140.53A50.78,50.78,0,0,0,89.77,72.69v78.82h-31A50.78,50.78,0,0,0,8,202.2V309.8a50.78,50.78,0,0,0,50.76,50.69h31v78.82A50.78,50.78,0,0,0,140.53,490H371.47a50.78,50.78,0,0,0,50.76-50.69V360.49h31A50.78,50.78,0,0,0,504,309.8V202.2A50.78,50.78,0,0,0,453.24,151.51ZM367.49,72.68l5.4-30,32.56,32.5a3.28,3.28,0,0,1,.42.58l-34.06-.1h-.15c-2.22,0-3.49-.56-3.92-1.07A2.51,2.51,0,0,1,367.49,72.68Zm-261.72,0A34.76,34.76,0,0,1,140.53,38h217l-5.73,31.85A18,18,0,0,0,355.54,85c3.69,4.35,9.34,6.72,15.94,6.72h.34l34.41.11v59.7H105.77ZM406.23,439.31A34.76,34.76,0,0,1,371.47,474H140.53a34.76,34.76,0,0,1-34.76-34.69V275.78a2.69,2.69,0,0,1,2.69-2.68H403.54a2.69,2.69,0,0,1,2.69,2.68ZM488,309.8a34.76,34.76,0,0,1-34.76,34.69h-31V275.78a18.7,18.7,0,0,0-18.69-18.68H108.46a18.7,18.7,0,0,0-18.69,18.68v68.71h-31A34.76,34.76,0,0,1,24,309.8V202.2a34.76,34.76,0,0,1,34.76-34.69H453.24A34.76,34.76,0,0,1,488,202.2Z"></path>
    <path d="M367.91,314.25H155.6a8,8,0,0,0,0,16H367.91a8,8,0,1,0,0-16Z"></path>
    <path d="M367.91,367.61H155.6a8,8,0,0,0,0,16H367.91a8,8,0,0,0,0-16Z"></path>
    <path d="M367.91,421H155.6a8,8,0,0,0,0,16H367.91a8,8,0,1,0,0-16Z"></path>
    <path d="M71.64,184.47A24.57,24.57,0,1,0,96.22,209,24.6,24.6,0,0,0,71.64,184.47Zm0,33.13A8.57,8.57,0,1,1,80.22,209,8.58,8.58,0,0,1,71.64,217.6Z"></path>
</svg>