<svg height='100px' width='100px'  fill="#979797" xmlns="http://www.w3.org/2000/svg" data-name="Layer 1" viewBox="0 0 512 512" x="0px" y="0px">
    <path d="M420,65.83H313.47V38.23A30.25,30.25,0,0,0,283.26,8H228.74a30.25,30.25,0,0,0-30.21,30.23v27.6H92a28,28,0,0,0-28,28v33a28,28,0,0,0,26.07,27.92V451.54A52.51,52.51,0,0,0,142.49,504h227a52.51,52.51,0,0,0,52.42-52.46V154.78A28,28,0,0,0,448,126.86v-33A28,28,0,0,0,420,65.83ZM214.53,38.23A14.24,14.24,0,0,1,228.74,24h54.52a14.24,14.24,0,0,1,14.21,14.23v27.6H214.53Zm191.4,413.31A36.49,36.49,0,0,1,369.51,488h-227a36.49,36.49,0,0,1-36.42-36.46V154.86H405.93ZM432,126.86a12,12,0,0,1-12,12H92a12,12,0,0,1-12-12v-33a12,12,0,0,1,12-12H420a12,12,0,0,1,12,12Z"></path>
    <path d="M193.22,439.62a8,8,0,0,0,8-8V210.29a8,8,0,0,0-16,0V431.62A8,8,0,0,0,193.22,439.62Z"></path>
    <path d="M315.38,439.62a8,8,0,0,0,8-8V210.29a8,8,0,1,0-16,0V431.62A8,8,0,0,0,315.38,439.62Z"></path>
</svg>