<svg height='100px' width='100px'  fill="#979797" xmlns="http://www.w3.org/2000/svg" data-name="Layer 1" viewBox="0 0 512 512" x="0px" y="0px">
    <path d="M57.14,50.5H26a18,18,0,0,0-18,18V99.62a18,18,0,0,0,18,18H57.14a18,18,0,0,0,18-18V68.5A18,18,0,0,0,57.14,50.5Zm2,49.12a2,2,0,0,1-2,2H26a2,2,0,0,1-2-2V68.5a2,2,0,0,1,2-2H57.14a2,2,0,0,1,2,2Z"></path>
    <path d="M129.77,92.06H496a8,8,0,0,0,0-16H129.77a8,8,0,0,0,0,16Z"></path>
    <path d="M57.14,165.13H26a18,18,0,0,0-18,18v31.12a18,18,0,0,0,18,18H57.14a18,18,0,0,0,18-18V183.13A18,18,0,0,0,57.14,165.13Zm2,49.12a2,2,0,0,1-2,2H26a2,2,0,0,1-2-2V183.13a2,2,0,0,1,2-2H57.14a2,2,0,0,1,2,2Z"></path>
    <path d="M496,190.69H129.77a8,8,0,0,0,0,16H496a8,8,0,0,0,0-16Z"></path>
    <path d="M57.14,279.75H26a18,18,0,0,0-18,18v31.12a18,18,0,0,0,18,18H57.14a18,18,0,0,0,18-18V297.75A18,18,0,0,0,57.14,279.75Zm2,49.12a2,2,0,0,1-2,2H26a2,2,0,0,1-2-2V297.75a2,2,0,0,1,2-2H57.14a2,2,0,0,1,2,2Z"></path>
    <path d="M496,305.31H129.77a8,8,0,0,0,0,16H496a8,8,0,0,0,0-16Z"></path>
    <path d="M57.14,394.38H26a18,18,0,0,0-18,18V443.5a18,18,0,0,0,18,18H57.14a18,18,0,0,0,18-18V412.38A18,18,0,0,0,57.14,394.38Zm2,49.12a2,2,0,0,1-2,2H26a2,2,0,0,1-2-2V412.38a2,2,0,0,1,2-2H57.14a2,2,0,0,1,2,2Z"></path>
    <path d="M496,419.94H129.77a8,8,0,0,0,0,16H496a8,8,0,0,0,0-16Z"></path>
</svg>