<svg height='100px' width='100px'  fill="#979797" xmlns="http://www.w3.org/2000/svg" xmlns:xlink="http://www.w3.org/1999/xlink" version="1.1" x="0px" y="0px" viewBox="0 0 64 64" style="enable-background:new 0 0 64 64;" xml:space="preserve">
    <path d="M54,5H42.9v0C43,4.5,42.8,4,42.5,3.7C42.2,3.2,41.7,3,41.1,3H39c0,0,0-1.9-1.9-2H36c-0.6,0-1,0.4-1,1s0.4,1,1,1h1v1  c0,0.6,0.4,1,1,1h2.9v6h-11c-0.6,0-1,0.4-1,1s0.4,1,1,1H41c1,0,1.9-0.9,1.9-1.9V7H54c0.6,0,1,0.4,1,1v40c0,0.6,0.4,1,1,1s1-0.4,1-1  V8C57,6.3,55.7,5,54,5z"></path>
    <path d="M56,51c-0.6,0-1,0.4-1,1v2c0,0.6,0.4,1,1,1s1-0.4,1-1v-2C57,51.4,56.6,51,56,51z"></path><path d="M56,57c-0.6,0-1,0.4-1,1v2c0,0.6-0.4,1-1,1H10c-0.6,0-1-0.4-1-1V8c0-0.6,0.4-1,1-1h11v4c0,1.1,0.8,2,1.9,2H26  c0.6,0,1-0.4,1-1s-0.4-1-1-1h-3V5h3c0.6,0,1-0.4,1-1V3h5c0.6,0,1-0.4,1-1s-0.4-1-1-1h-5.1c-2,0-1.9,2-1.9,2h-2.1  c-1,0-1.9,0.9-1.9,1.9V5H10C8.3,5,7,6.3,7,8v52c0,1.7,1.3,3,3,3h44c1.7,0,3-1.3,3-3v-2C57,57.4,56.6,57,56,57z"></path>
    <path d="M18,9h-3.9c-1.7,0-3.1,1.4-3.1,3.1v4c0,0.6,0.4,1,1,1s1-0.4,1-1v-4c0-0.5,0.4-1.1,1.1-1.1H18c0.6,0,1-0.4,1-1S18.6,9,18,9z"></path>
    <path d="M14.1,57.1c-0.5,0-1.1-0.4-1.1-1.1c0-0.6-0.4-1-1-1s-1,0.4-1,1c0,1.7,1.4,3.1,3.1,3.1H22c0.6,0,1-0.4,1-1s-0.4-1-1-1H14.1z"></path>
    <path d="M49.9,59.1c1.7,0,3.1-1.4,3.1-3.1V12.1c0-1.7-1.4-3.1-3.1-3.1h-3.6c-0.6,0-1,0.4-1,1s0.4,1,1,1h3.6c0.5,0,1.1,0.4,1.1,1.1  V56c0,0.5-0.4,1.1-1.1,1.1L32.3,57l-15.8-9.8c-0.3-0.2-0.7-0.2-1,0C15.2,47.3,15,47.6,15,48c0,1.3-0.8,2.4-2,2.8V20c0-0.6-0.4-1-1-1  s-1,0.4-1,1v32c0.1,0.8,0.7,1,0.7,1l20,6C31.8,59,49.9,59.1,49.9,59.1z M15.1,51.9c0.7-0.6,1.3-1.4,1.6-2.3l8.4,5.3L15.1,51.9z"></path>
    <path d="M33,8c0-0.6-0.4-1-1-1h-6c-0.6,0-1,0.4-1,1s0.4,1,1,1h6C32.6,9,33,8.6,33,8z"></path>
    <path d="M38,9c0.6,0,1-0.4,1-1s-0.4-1-1-1h-2c-0.6,0-1,0.4-1,1s0.4,1,1,1H38z"></path>
    <path d="M40,18c-0.6,0-1,0.4-1,1v2c0,1.2,0.8,2,2,2h2v2.4l-3.4,1.7c-0.5,0.2-0.7,0.8-0.4,1.3c0.3,0.7,1.2,0.5,1.3,0.4l4-2  c0.3-0.2,0.6-0.5,0.6-0.9v-3h2c1.2,0,2-0.8,2-2v-2c0-1.2-0.8-2-2-2h-3c-0.6,0-1,0.4-1,1s0.4,1,1,1h3v2h-6v-2C41,18.4,40.6,18,40,18z  "></path>
    <path d="M41,45c-1.2,0-2,0.8-2,2v2c0,0.6,0.4,1,1,1s1-0.4,1-1v-2h6v2h-2.9c-0.6,0-1,0.4-1,1s0.4,1,1,1H47c1.2,0,2-0.8,2-2v-2  c0-1.2-0.8-2-2-2h-2v-7c0-0.6-0.4-1-1-1h-4c-0.6,0-1,0.4-1,1s0.4,1,1,1h3v6H41z"></path>
    <path d="M23,23c1.2,0,2-0.8,2-2v-2c0-1.2-0.8-2-2-2h-6c-1.2,0-2,0.8-2,2v2c0,1.2,0.8,2,2,2h2v7c0,0.6,0.4,1,1,1h4c0.6,0,1-0.4,1-1  s-0.4-1-1-1h-3v-6H23z M17,21v-2h6v2H17z"></path>
    <path d="M37,54c0,0.6,0.4,1,1,1h10c0.6,0,1-0.4,1-1s-0.4-1-1-1H38C37.4,53,37,53.4,37,54z"></path>
    <path d="M16,35c-0.6,0-1,0.4-1,1v8c0,0.6,0.4,1,1,1s1-0.4,1-1v-8C17,35.4,16.6,35,16,35z"></path>
    <path d="M17,28c0-0.6-0.4-1-1-1s-1,0.4-1,1v4c0,0.6,0.4,1,1,1s1-0.4,1-1V28z"></path>
    <path d="M34,55c0.6,0,1-0.4,1-1s-0.4-1-1-1h-2c-0.6,0-1,0.4-1,1s0.4,1,1,1H34z"></path>
    <path d="M29.1,29.2c-0.4-0.3-1.1-0.2-1.4,0.2l-4.5,6c-0.2,0.3-0.3,0.7-0.1,1S23.6,37,24,37h4.8L27,47.8c-0.1,0.5,0.2,0.9,0.6,1.1  c0.5,0.2,1-0.1,1.2-0.3l12-16c0.2-0.3,0.3-0.7,0.1-1C40.7,31.2,40.4,31,40,31h-4.8L37,20.2c0.1-0.5-0.2-0.9-0.6-1.1  c-0.4-0.2-0.9,0-1.2,0.3l-4.5,6c-0.3,0.4-0.2,1.1,0.2,1.4c0.4,0.3,1.1,0.2,1.4-0.2l2-2.7l-1.3,8c-0.1,0.9,0.7,1.2,1,1.2h4l-8.3,11.1  l1.3-8c0-0.3-0.1-1.2-1-1.2h-4l3.3-4.4C29.6,30.2,29.5,29.5,29.1,29.2z"></path>
</svg>