<svg height='100px' width='100px'  fill="#979797" xmlns="http://www.w3.org/2000/svg" xmlns:xlink="http://www.w3.org/1999/xlink" version="1.1" x="0px" y="0px" viewBox="0 0 64 64" style="enable-background:new 0 0 64 64;" xml:space="preserve">
    <path d="M27,3l4.4,0l2.2,4.4c0.1,0.2,0.3,0.4,0.6,0.5c1.3,0.4,2.5,0.9,3.6,1.5c0.2,0.1,0.5,0.2,0.8,0.1l4.7-1.6l4.8,4.8l-1.6,4.7  c-0.1,0.3-0.1,0.5,0.1,0.8c0.6,1.1,1.1,2.4,1.5,3.6c0.1,0.3,0.3,0.5,0.5,0.6l4.4,2.2l0,6.8c-0.5,0.2-0.7,0.8-0.5,1.3  c0.3,0.7,1.2,0.5,1.3,0.5c0.7-0.3,1.1-1,1.1-1.8v-6.8c0-0.7-0.4-1.4-1.1-1.8l-4.1-2c-0.4-1.1-0.8-2.2-1.3-3.2l1.4-4.3  c0.2-0.7,0-1.5-0.5-2l-4.8-4.8c-0.5-0.5-1.3-0.7-2-0.5l-4.3,1.4c-1-0.5-2.1-1-3.2-1.3l-2-4c-0.3-0.7-1-1.1-1.8-1.1H27  c-0.6,0-1,0.4-1,1S26.4,3,27,3z"></path>
    <path d="M7.9,43.3l1.6-4.7c0.1-0.3,0.1-0.5-0.1-0.8c-0.6-1.1-1.1-2.4-1.5-3.6c-0.1-0.3-0.3-0.5-0.5-0.6L3,31.4l0-6.8l4.4-2.2  c0.2-0.1,0.4-0.3,0.5-0.6c0.4-1.3,0.9-2.5,1.5-3.6c0.1-0.2,0.2-0.5,0.1-0.8l-1.6-4.7l4.8-4.8l4.7,1.6c0.3,0.1,0.5,0.1,0.8-0.1  c1.1-0.6,2.4-1.1,3.6-1.5c0.3-0.1,0.5-0.3,0.6-0.5L24.6,3c0.2-0.5,0-1.1-0.4-1.3c-0.5-0.2-1.1,0-1.3,0.4l-2,4.1  c-1.1,0.4-2.2,0.8-3.2,1.3L13.3,6c-0.7-0.2-1.5,0-2,0.5l-4.8,4.8c-0.5,0.5-0.7,1.3-0.5,2l1.4,4.3c-0.5,1-1,2.1-1.3,3.2l-4,2  c-0.7,0.3-1.1,1-1.1,1.8v6.8c0,0.7,0.4,1.4,1.1,1.8l4.1,2c0.4,1.1,0.8,2.2,1.3,3.2L6,42.7c-0.2,0.7,0,1.5,0.5,2l2.8,2.8  c0.2,0.2,0.9,0.5,1.4,0c0.4-0.4,0.4-1,0-1.4L7.9,43.3z"></path>
    <path d="M32.7,52.6c-0.5-0.3-1.1-0.1-1.3,0.4l-6.8,0l-2.2-4.4c-0.1-0.2-0.3-0.4-0.6-0.5c-1.3-0.4-2.5-0.9-3.6-1.5  c-0.2-0.1-0.5-0.2-0.8-0.1l-4.7,1.6c-0.5,0.2-0.8,0.7-0.6,1.3s0.7,0.8,1.3,0.6l4.3-1.4c1,0.5,2.1,1,3.2,1.3l2,4  c0.3,0.7,1,1.1,1.8,1.1h6.8c0.7,0,1.4-0.4,1.8-1.1C33.4,53.5,33.2,52.8,32.7,52.6z"></path>
    <path d="M62.3,45.1l-1.8-0.6c-0.3-1-0.7-1.9-1.1-2.8l0.8-1.7c0.2-0.4,0.1-0.8-0.2-1.2L57.2,36c-0.3-0.3-0.8-0.4-1.2-0.2l-1.7,0.8  c-0.9-0.5-1.8-0.9-2.8-1.1l-0.6-1.8C50.8,33.3,50.4,33,50,33h-4c-0.4,0-0.8,0.3-0.9,0.7l-0.6,1.8c-1,0.3-1.9,0.7-2.8,1.1L40,35.8  c-0.4-0.2-0.8-0.1-1.2,0.2L36,38.8c-0.3,0.3-0.4,0.8-0.2,1.2l1.1,2.2c0.2,0.5,0.8,0.7,1.3,0.5c0.5-0.2,0.7-0.8,0.5-1.3l-0.8-1.5  l1.8-1.8l1.5,0.8c0.3,0.2,0.7,0.1,1,0c1-0.6,2.1-1.1,3.2-1.3c0.3-0.1,0.6-0.3,0.7-0.7l0.6-1.6h2.6l0.6,1.6c0.1,0.3,0.4,0.6,0.7,0.7  c1.1,0.3,2.2,0.7,3.2,1.3c0.3,0.2,0.7,0.2,1,0l1.5-0.8l1.8,1.8l-0.8,1.5c-0.2,0.3-0.1,0.7,0,1c0.6,1,1.1,2.1,1.3,3.2  c0.1,0.3,0.3,0.6,0.7,0.7l1.6,0.6v2.6l-1.6,0.6c-0.3,0.1-0.6,0.4-0.7,0.7c-0.2,0.7-0.4,1.4-0.7,2.1c-0.2,0.5,0,1.2,0.5,1.3  c0.6,0.2,1.2-0.1,1.3-0.5c0.3-0.6,0.5-1.3,0.7-1.9l1.8-0.6c0.4-0.1,0.7-0.5,0.7-0.9v-4C63,45.6,62.7,45.2,62.3,45.1z"></path>
    <path d="M58.6,55.8l-2.3,2.3l-1.5-0.8c-0.3-0.2-0.7-0.1-1,0c-1,0.6-2.1,1.1-3.2,1.3c-0.3,0.1-0.6,0.3-0.7,0.7L49.3,61h-2.6l-0.6-1.6  c-0.1-0.3-0.4-0.6-0.7-0.7c-1.1-0.3-2.2-0.7-3.2-1.3c-0.3-0.2-0.7-0.2-1,0l-1.5,0.8l-1.8-1.8l0.8-1.5c0.2-0.3,0.1-0.7,0-1  c-0.6-1-1.1-2.1-1.3-3.2c-0.1-0.3-0.3-0.6-0.7-0.7L35,49.3v-2.6l1.6-0.6c0.5-0.2,0.8-0.7,0.6-1.3c-0.2-0.5-0.7-0.8-1.3-0.6l-2.3,0.8  C33.3,45.2,33,45.6,33,46v4c0,0.4,0.3,0.8,0.7,0.9l1.8,0.6c0.3,1,0.7,1.9,1.1,2.8L35.8,56c-0.2,0.4-0.1,0.8,0.2,1.2l2.8,2.8  c0.3,0.3,0.8,0.4,1.2,0.2l1.7-0.8c0.9,0.5,1.8,0.9,2.8,1.1l0.6,1.8c0.1,0.4,0.5,0.7,0.9,0.7h4c0.4,0,0.8-0.3,0.9-0.7l0.6-1.8  c1-0.3,1.9-0.7,2.8-1.1l1.7,0.8c0.4,0.2,0.8,0.1,1.2-0.2l2.8-2.8c0.4-0.4,0.4-1,0-1.4S59,55.4,58.6,55.8z"></path>
    <path d="M21.1,27.9c0.2,0.4,0.5,0.6,0.9,0.6h2.8l-1.7,9.3c-0.1,0.4,0.1,0.9,0.5,1.1c0.5,0.2,1,0,1.2-0.2l9.9-10.4  c0.3-0.3,0.4-0.7,0.2-1.1c-0.2-0.4-0.5-0.6-0.9-0.6h-2.8l1.7-8.4c0.1-0.4-0.1-0.9-0.5-1.1c-0.4-0.2-0.9-0.2-1.2,0.2l-4,3.8  c-0.4,0.4-0.4,1,0,1.4c0.4,0.4,1,0.4,1.4,0l1.7-1.6L29,27.4c-0.1,0.3,0.1,1.1,1,1.2h1.7l-6,6.3l1.3-7.1c0.1-0.3-0.1-1.1-1-1.2h-1.5  l1.9-1.8c0.4-0.4,0.4-1,0-1.4c-0.4-0.4-1-0.4-1.4,0l-3.7,3.6C21,27.1,20.9,27.6,21.1,27.9z"></path>
    <path d="M48,47c0.6,0,1-0.4,1-1s-0.4-1-1-1c-1.7,0-3,1.3-3,3s1.3,3,3,3s3-1.3,3-3c0-0.6-0.4-1-1-1s-1,0.4-1,1c0,0.6-0.4,1-1,1  s-1-0.4-1-1S47.4,47,48,47z"></path>
    <path d="M40.5,45c-0.5-0.1-1.1,0.2-1.2,0.7C39.1,46.5,39,47.3,39,48c0,0.6,0.4,1,1,1s1-0.4,1-1c0-0.6,0.1-1.2,0.2-1.8  C41.4,45.7,41,45.2,40.5,45z"></path>
    <path d="M41.9,51.5c-0.3-0.5-0.9-0.6-1.4-0.4c-0.5,0.3-0.7,0.9-0.4,1.4c3.4,5.5,9.3,4.4,10,4.2c0.5-0.1,0.9-0.7,0.7-1.2  c-0.1-0.5-0.7-0.9-1.2-0.7C46.7,55.5,43.5,54.2,41.9,51.5z"></path>
    <path d="M49.8,41.2C52.8,42,55,44.8,55,48c0,0.6,0.4,1,1,1s1-0.4,1-1c0-4.1-2.8-7.7-6.8-8.7c-0.5-0.1-1.1,0.2-1.2,0.7  C48.9,40.5,49.2,41.1,49.8,41.2z"></path>
    <path d="M34.4,12.2c-0.5-0.2-1.1,0-1.3,0.6s0,1.1,0.6,1.3c3.7,1.5,6.8,4.5,8.3,8.3c0.2,0.4,0.7,0.8,1.3,0.5c0.5-0.2,0.8-0.8,0.5-1.3  C42,17.4,38.6,13.9,34.4,12.2z"></path>
    <path d="M13,28c0-1.2,0.2-2.5,0.5-3.8c0.1-0.5-0.2-1.1-0.7-1.2c-0.5-0.1-1.1,0.2-1.2,0.7C11.2,25.2,11,26.6,11,28c0,0.6,0.4,1,1,1  S13,28.6,13,28z"></path>
    <path d="M24.2,42.5c-4.6-1.2-8.4-4.5-10.2-8.9c-0.2-0.5-0.8-0.8-1.3-0.6c-0.5,0.2-0.8,0.8-0.6,1.3c2,5,6.3,8.8,11.5,10.1  c0.1,0,1,0.3,1.2-0.7C25.1,43.2,24.8,42.7,24.2,42.5z"></path>
</svg>