<svg height='100px' width='100px'  fill="#979797" xmlns="http://www.w3.org/2000/svg" xmlns:xlink="http://www.w3.org/1999/xlink" version="1.1" x="0px" y="0px" viewBox="0 0 64 64" style="enable-background:new 0 0 64 64;" xml:space="preserve">
    <path d="M62,61h-7V33h5.3c1.1,0,2.1-0.7,2.5-1.7c0.4-1,0.2-2.1-0.6-2.9l-26-25.8c-2.4-2.1-6-2.1-8.4,0L16.3,14c-0.4,0.4-0.4,1,0,1.4  c0.4,0.4,1,0.4,1.4,0L29.2,4c1.6-1.5,4-1.5,5.6,0l26,25.8c0.3,0.3,0.3,1.2-0.5,1.2H54c-0.6,0-1,0.4-1,1v29H36.2c-0.6,0-1,0.4-1,1  s0.4,1,1,1H62c0.6,0,1-0.4,1-1S62.6,61,62,61z"></path>
    <path d="M32,61H11v-5c0-0.6-0.4-1-1-1s-1,0.4-1,1v5H8c-0.6,0-1,0.4-1,1s0.4,1,1,1h24c0.6,0,1-0.4,1-1S32.6,61,32,61z"></path>
    <path d="M3.7,33H9v13.1c0,0.6,0.4,1,1,1s1-0.4,1-1V32c0-0.6-0.4-1-1-1H3.7c-0.9,0-0.8-0.9-0.5-1.2l11.5-11.4c0.4-0.4,0.4-1,0-1.4  c-0.4-0.4-1-0.4-1.4,0L1.8,28.4c-0.8,0.8-1,1.9-0.6,2.9C1.6,32.3,2.6,33,3.7,33z"></path>
    <path d="M10,49.1c-0.6,0-1,0.4-1,1v2.2c0,0.6,0.4,1,1,1s1-0.4,1-1v-2.2C11,49.5,10.6,49.1,10,49.1z"></path>
    <path d="M47.4,9h5.2C52.8,9,53,9.2,53,9.4V17c0,0.6,0.4,1,1,1s1-0.4,1-1V9.4C55,8.1,53.9,7,52.6,7h-5.2c-0.8,0-1.5,0.3-1.9,0.9  c-0.3,0.4-0.3,1.1,0.2,1.4C46.5,9.9,47.3,9,47.4,9z"></path>
    <path d="M4,61H2c-0.6,0-1,0.4-1,1s0.4,1,1,1h2c0.6,0,1-0.4,1-1S4.6,61,4,61z"></path>
    <path d="M30.7,8.7L32,7.4l1.3,1.3c0.2,0.2,1,0.5,1.4,0c0.4-0.4,0.4-1,0-1.4L33.4,6c-0.8-0.8-2-0.8-2.8,0l-1.3,1.3  c-0.4,0.4-0.4,1,0,1.4S30.3,9.1,30.7,8.7z"></path>
    <path d="M26.7,12.7l2-2c0.4-0.4,0.4-1,0-1.4s-1-0.4-1.4,0l-2,2c-0.4,0.4-0.4,1.1,0,1.4C25.9,13.2,26.5,12.9,26.7,12.7z"></path>
    <path d="M49.3,59c1,0,1.7-0.7,1.7-1.7V56c0-0.6-0.4-1-1-1s-1,0.4-1,1v1h-1c-0.6,0-1,0.4-1,1s0.4,1,1,1H49.3z"></path>
    <path d="M19.1,40.4c0.2,0.3,0.5,0.6,0.9,0.6h8.7L25,53.7c-0.1,0.5,0.1,0.9,0.5,1.2c0.4,0.3,1,0,1.2-0.3l18-22  c0.2-0.3,0.3-0.7,0.1-1.1C44.7,31.2,44.4,31,44,31h-8.7L39,18.3c0.1-0.5-0.1-0.9-0.5-1.2c-0.4-0.2-0.9-0.1-1.2,0.3l-6.5,7.9  c-0.3,0.4-0.3,1.1,0.1,1.4c0.4,0.3,1.1,0.3,1.4-0.1l3.4-4.1L33,31.7c-0.1,1.1,0.6,1.3,1,1.3h7.9L28.3,49.6l2.7-9.3  c0.1-0.3,0-1.2-1-1.3h-7.9l7.2-8.8c0.3-0.4,0.3-1.1-0.1-1.4c-0.4-0.3-1.1-0.3-1.4,0.1l-8.5,10.4C19,39.7,18.9,40.1,19.1,40.4z"></path>
</svg>