<svg height='100px' width='100px'  fill="#979797" xmlns="http://www.w3.org/2000/svg" viewBox="0 0 512 512" x="0px" y="0px">
    <g>
        <path d="M456,456V56a32.036,32.036,0,0,0-32-32H88A32.036,32.036,0,0,0,56,56V320H72V296h80v24h16V296h80v24h16V296h80v48H296v16h48v48H296v16h48v32a32.036,32.036,0,0,0,32,32h48A32.036,32.036,0,0,0,456,456ZM344,152H264V104h80Zm16-48h80v48H360ZM264,88V40h80V88Zm-16,0H168V40h80Zm0,16v48H168V104Zm-96,48H72V104h80Zm0,16v48H72V168Zm16,0h80v48H168Zm96,0h80v48H264Zm96,0h80v48H360Zm80,64v48H360V232Zm0-176V88H360V40h64A16.019,16.019,0,0,1,440,56ZM88,40h64V88H72V56A16.019,16.019,0,0,1,88,40ZM72,280V232h80v48Zm96,0V232h80v48Zm96,0V232h80v48Zm96,16h80v48H360Zm80,64v48H360V360Zm-80,96V424h80v32a16.019,16.019,0,0,1-16,16H376A16.019,16.019,0,0,1,360,456Z"></path>
        <rect x="88" y="56" width="16" height="16"></rect>
        <rect x="120" y="56" width="16" height="16"></rect>
        <rect x="184" y="56" width="48" height="16"></rect>
        <rect x="280" y="56" width="48" height="16"></rect>
        <rect x="376" y="56" width="48" height="16"></rect>
        <path d="M280,456V368a32.036,32.036,0,0,0-32-32H131.313l-13.656-13.657a8,8,0,0,0-11.314,0L92.687,336H56a32.036,32.036,0,0,0-32,32v88a32.036,32.036,0,0,0,32,32H248A32.036,32.036,0,0,0,280,456ZM40,456V368a16.019,16.019,0,0,1,16-16H96a8,8,0,0,0,5.657-2.343L112,339.313l10.343,10.344A8,8,0,0,0,128,352H248a16.019,16.019,0,0,1,16,16v88a16.019,16.019,0,0,1-16,16H56A16.019,16.019,0,0,1,40,456Z"></path>
        <rect x="80" y="376" width="16" height="16"></rect>
        <rect x="112" y="376" width="128" height="16"></rect>
        <rect x="64" y="408" width="176" height="16"></rect>
        <rect x="64" y="440" width="144" height="16"></rect>
    </g>
</svg>