<svg height='100px' width='100px'  fill="#979797" xmlns="http://www.w3.org/2000/svg" data-name="Layer 1" viewBox="0 0 100 100" x="0px" y="0px">
    <path d="M95,16.04248H36.0708V12.44287H95ZM25.584,23.48486H5V5H25.584ZM21.98438,8.59961H8.59961V19.88525H21.98438ZM95,36.28125H36.0708v3.59961H95Zm-69.416,11.042H5V28.83838H25.584ZM21.98438,32.438H8.59961V43.72363H21.98438ZM95,60.11914H36.0708v3.59961H95ZM25.584,71.16162H5V52.67676H25.584Zm-3.5996-14.88525H8.59961V67.562H21.98438ZM95,83.95752H36.0708v3.59961H95ZM25.584,95H5V76.51514H25.584Zm-3.5996-14.88525H8.59961V91.40039H21.98438Z"></path>
</svg>