<?xml version="1.0" encoding="UTF-8"?>
<svg width="128pt" height="128pt" version="1.1" viewBox="0 0 128 128" xmlns="http://www.w3.org/2000/svg">
 <g fill="#969696">
  <path d="m103.92 62.238h-38.16v-38.16c0.046875-0.49609-0.12109-0.98438-0.45703-1.3516-0.33594-0.36719-0.80859-0.57422-1.3047-0.57422s-0.96875 0.20703-1.3047 0.57422c-0.33594 0.36719-0.50391 0.85547-0.45703 1.3516v38.16h-38.16c-0.49609-0.046875-0.98438 0.12109-1.3516 0.45703-0.36719 0.33594-0.57422 0.80859-0.57422 1.3047s0.20703 0.96875 0.57422 1.3047c0.36719 0.33594 0.85547 0.50391 1.3516 0.45703h38.16v38.16c-0.046875 0.49609 0.12109 0.98438 0.45703 1.3516 0.33594 0.36719 0.80859 0.57422 1.3047 0.57422s0.96875-0.20703 1.3047-0.57422c0.33594-0.36719 0.50391-0.85547 0.45703-1.3516v-38.16h38.16c0.49609 0.046875 0.98438-0.12109 1.3516-0.45703 0.36719-0.33594 0.57422-0.80859 0.57422-1.3047s-0.20703-0.96875-0.57422-1.3047c-0.36719-0.33594-0.85547-0.50391-1.3516-0.45703z"/>
  <path d="m63.992 0c-16.977 0-33.258 6.7461-45.262 18.75-12.004 12.004-18.746 28.285-18.746 45.262 0.0039062 16.977 6.75 33.258 18.754 45.262 12.004 12 28.289 18.742 45.266 18.742 16.977-0.003906 33.254-6.75 45.258-18.758 12-12.004 18.742-28.289 18.738-45.266-0.023438-16.965-6.7734-33.234-18.773-45.23-12-11.996-28.266-18.742-45.234-18.762zm0 124.47c-16.039 0-31.422-6.3711-42.766-17.715-11.34-11.34-17.715-26.723-17.715-42.766 0-16.039 6.375-31.422 17.715-42.766 11.344-11.34 26.727-17.715 42.766-17.715 16.043 0 31.426 6.375 42.766 17.715 11.344 11.344 17.715 26.727 17.715 42.766-0.015625 16.035-6.3906 31.41-17.73 42.75-11.34 11.34-26.715 17.715-42.75 17.73z"/>
 </g>
</svg>
