<svg height='100px' width='100px'  fill="#979797" xmlns="http://www.w3.org/2000/svg" viewBox="0 0 64 64" x="0px" y="0px">
    <g>
        <path d="M32,2A29.982,29.982,0,0,0,13.429,55.534L11.511,58H3v2h9a1,1,0,0,0,.79-.386l2.246-2.889a29.935,29.935,0,0,0,26.693,3.652,30.151,30.151,0,0,0,11.484-7.164A30,30,0,0,0,32,2Zm1,2.018A28.035,28.035,0,0,1,59.982,31H48.971A17.026,17.026,0,0,0,33,15.029ZM47,32a14.9,14.9,0,0,1-4.394,10.606,15.066,15.066,0,0,1-5.744,3.572h0A14.993,14.993,0,1,1,47,32ZM32,60a27.837,27.837,0,0,1-15.736-4.854l2.468-3.173A1.978,1.978,0,0,0,19,52a2,2,0,1,0-2-2,1.976,1.976,0,0,0,.149.751l-2.493,3.206A27.983,27.983,0,0,1,31,4.018V15.029A17,17,0,0,0,32,49a16.84,16.84,0,0,0,4.555-.632l3.574,10.425A27.922,27.922,0,0,1,32,60Zm10.021-1.856L38.446,47.718a17.11,17.11,0,0,0,4.846-3.012l7.787,7.787A28.194,28.194,0,0,1,42.021,58.144ZM52.494,51.08l-7.786-7.787A16.856,16.856,0,0,0,48.971,33H59.982A27.781,27.781,0,0,1,52.494,51.08Z"></path>
        <rect x="3" y="3" width="8" height="2"></rect>
        <rect x="3" y="7" width="8" height="2"></rect>
        <rect x="52" y="3" width="9" height="2"></rect>
        <rect x="34" y="24" width="9" height="2"></rect>
        <rect x="34" y="28" width="9" height="2"></rect>
        <rect x="34" y="32" width="9" height="2"></rect>
    </g>
</svg>