<?xml version="1.0" encoding="UTF-8"?>
<svg width="128pt" height="128pt" version="1.1" viewBox="0 0 128 128" xmlns="http://www.w3.org/2000/svg">
 <g fill="#969696">
  <path d="m103.34 33.773-3.5156 1.4961c1.3711 3.2188 2.2812 6.5938 2.707 10.031 1.6445 13.223-3.3984 26.195-13.492 34.699-7.3477 6.1953-12.66 14.465-15.039 23.379l-0.78906 0.27344v-38.852h-3.8203v40.066c-0.19922 0.070312-11.508 4.125-10.793 3.8711v-29.32h-3.8203v30.648l-3.0781 1.0703 0.007813 0.015625-0.49219 0.17188 0.16016 1.5078c0.68359 6.4727 6.1055 11.355 12.617 11.355 7.0039 0 12.707-5.6992 12.707-12.703v-4.9922l0.52344-0.18359c0.16016-0.38281 2.3086-13.281 14.289-23.383 11.086-9.3398 16.625-23.582 14.82-38.09-0.48047-3.7969-1.4844-7.5156-2.9922-11.062zm-30.469 77.707c0 4.8984-3.9844 8.8828-8.8828 8.8828-3.9883 0-7.3828-2.6289-8.4844-6.3242 0.19141-0.070312 18.531-6.6289 17.367-6.2109z"/>
  <path d="m47.434 89.125-3.1172 2.2109c3.0234 4.2539 5.1445 8.9453 6.3086 13.941l3.7188-0.86719c-1.2695-5.4805-3.5977-10.625-6.9102-15.285z"/>
  <path d="m68.438 11.699c10 1.1211 19.078 6.0703 25.562 13.934l2.9492-2.4336c-7.1211-8.6328-17.098-14.066-28.09-15.301-26.148-2.9219-47.531 17.648-47.531 42.418 0 12.711 5.6055 24.668 15.25 32.684 0.14844 0.14844 0.29297 0.25781 0.44141 0.35938l2.1289-3.1758c-8.8984-7.4062-14-18.289-14-29.863 0-22.465 19.359-41.273 43.289-38.621z"/>
  <path d="m75.758 58.438h6v3.8203h-6z"/>
  <path d="m46.242 58.438h13.297v3.8203h-13.297z"/>
  <path d="m6.125 124.57-2.7031-2.7031 118.45-118.45 2.7031 2.7031z"/>
 </g>
</svg>
