<svg height='100px' width='100px'  fill="#979797" xmlns="http://www.w3.org/2000/svg" version="1.1" x="0px" y="0px" viewBox="0 0 64 64" style="enable-background:new 0 0 64 64;">
    <g>
        <path d="M9.834,37h2.801l8.941-19h-5.25l2-7H11.3L6.572,24h5.262L9.834,37z M9.428,22l3.272-9h2.974l-2,7h4.75l-5.869,12.474   L14.166,22H9.428z"></path>
        <path d="M34,5c-3.774,0-7.44,0.721-10.905,2.129C22.741,7.05,22.377,7,22,7h-1V4c0-1.654-1.346-3-3-3h-8C8.346,1,7,2.346,7,4v3H6   c-2.757,0-5,2.243-5,5v28c0,2.757,2.243,5,5,5h1.187C11.622,55.79,22.298,63,34,63c15.99,0,29-13.009,29-29S49.99,5,34,5z M9,4   c0-0.551,0.448-1,1-1h8c0.552,0,1,0.449,1,1v3H9V4z M6,9h16c1.654,0,3,1.346,3,3v27H3V12C3,10.346,4.346,9,6,9z M33,11.043V15h2   v-3.975c5.589,0.24,10.666,2.482,14.532,6.029l-2.804,2.804l1.414,1.414l2.804-2.804c3.546,3.866,5.788,8.943,6.029,14.532H53v2   h3.975c-0.24,5.589-2.482,10.666-6.029,14.532l-2.804-2.804l-1.414,1.414l2.804,2.804c-3.866,3.546-8.943,5.788-14.532,6.029V53h-2   v3.963c-5.466-0.24-10.589-2.431-14.522-6.027l2.795-2.794l-1.414-1.414l-2.797,2.797c-1.25-1.36-2.351-2.87-3.254-4.525H22   c2.757,0,5-2.243,5-5V12.109C28.946,11.487,30.956,11.131,33,11.043z M3.184,41h21.631c-0.414,1.161-1.514,2-2.816,2H6   C4.698,43,3.598,42.161,3.184,41z M34,61c-10.619,0-20.329-6.377-24.64-16h2.208C15.756,53.521,24.481,59,34,59   c13.785,0,25-11.215,25-25S47.785,9,34,9c-2.512,0-4.983,0.395-7.37,1.132c-0.269-0.664-0.676-1.253-1.186-1.74   C28.192,7.473,31.06,7,34,7c14.888,0,27,12.112,27,27S48.888,61,34,61z"></path>
        <polygon points="40.707,39.293 35,33.586 35,21 33,21 33,34.414 39.293,40.707  "></polygon>
    </g>
</svg>