<svg height='100px' width='100px'  fill="#979797" xmlns="http://www.w3.org/2000/svg" xmlns:xlink="http://www.w3.org/1999/xlink" version="1.1" x="0px" y="0px" viewBox="0 0 512 512" style="enable-background:new 0 0 512 512;" xml:space="preserve">
    <g>
        <g>
            <path d="M442.5,21.875h-373c-21.229,0-38.5,17.271-38.5,38.5v291.5c0,21.229,17.271,38.5,38.5,38.5h126.497l-22.894,79.75h-40.194    c-5.523,0-10,4.478-10,10s4.477,10,10,10c4.077,0,243.62,0,248.182,0c5.522,0,10-4.478,10-10s-4.478-10-10-10h-40.194    l-22.896-79.75H442.5c21.229,0,38.5-17.271,38.5-38.5v-291.5C481,39.146,463.729,21.875,442.5,21.875z M320.089,470.125H193.911    l22.895-79.75h80.388L320.089,470.125z M442.5,370.375c-18.473,0-366.036,0-373,0c-10.201,0-18.5-8.299-18.5-18.5v-11.5h86    c5.523,0,10-4.478,10-10s-4.477-10-10-10H51v-260c0-10.201,8.299-18.5,18.5-18.5h373c10.201,0,18.5,8.299,18.5,18.5v260H197    c-5.523,0-10,4.478-10,10s4.477,10,10,10h264v11.5C461,362.076,452.701,370.375,442.5,370.375z"></path>
            <rect x="421" y="150.125" width="20" height="20"></rect>
            <rect x="71" y="280.125" width="20" height="20"></rect>
            <rect x="101" y="280.125" width="20" height="20"></rect>
            <rect x="131" y="280.125" width="20" height="20"></rect>
            <rect x="161" y="280.125" width="20" height="20"></rect>
            <rect x="191" y="280.125" width="20" height="20"></rect>
            <rect x="221" y="280.125" width="20" height="20"></rect>
            <rect x="251" y="280.125" width="20" height="20"></rect>
            <rect x="281" y="280.125" width="20" height="20"></rect>
            <rect x="311" y="280.125" width="20" height="20"></rect>
            <rect x="341" y="280.125" width="20" height="20"></rect>
            <rect x="421" y="180.125" width="20" height="120"></rect>
            <rect x="381" y="150.125" width="20" height="20"></rect>
            <rect x="381" y="180.125" width="20" height="120"></rect>
            <path d="M271,205.125v-135c0-5.523-4.478-10-10-10h-78.75c-2.652,0-5.196,1.054-7.071,2.929L171,67.232l-4.179-4.179    c-1.875-1.875-4.419-2.929-7.071-2.929H81c-5.523,0-10,4.477-10,10v135c0,5.523,4.477,10,10,10h74.608    c8.659,8.654,8.635,8.741,9.765,9.511c3.971,2.712,9.269,2.172,12.633-1.13c0.455-0.444,6.277-6.272,8.386-8.38H261    C266.522,215.125,271,210.648,271,205.125z M91,195.125v-115h64.608L161,85.517v109.687    C159.825,195.055,163.981,195.153,91,195.125z M251,195.125c-72.67,0.027-68.817-0.071-70,0.079V85.517l5.392-5.392H251V195.125z"></path>
            <path d="M211,126.375h20c5.523,0,10-4.477,10-10s-4.477-10-10-10h-20c-5.523,0-10,4.477-10,10S205.477,126.375,211,126.375z"></path>
            <path d="M201,156.375h30c5.523,0,10-4.477,10-10s-4.477-10-10-10h-30c-5.523,0-10,4.477-10,10S195.477,156.375,201,156.375z"></path>
            <path d="M201,186.375h30c5.523,0,10-4.477,10-10s-4.477-10-10-10h-30c-5.523,0-10,4.477-10,10S195.477,186.375,201,186.375z"></path>
            <path d="M111,126.375h10c5.523,0,10-4.477,10-10s-4.477-10-10-10h-10c-5.523,0-10,4.477-10,10S105.477,126.375,111,126.375z"></path>
            <path d="M141,136.375h-30c-5.523,0-10,4.477-10,10s4.477,10,10,10h30c5.523,0,10-4.477,10-10S146.523,136.375,141,136.375z"></path>
            <path d="M141,166.375h-30c-5.523,0-10,4.477-10,10s4.477,10,10,10h30c5.523,0,10-4.477,10-10S146.523,166.375,141,166.375z"></path>
            <path d="M312.68,215.672c3.948,5.923,12.681,5.942,16.641,0l20-30c1.096-1.643,1.68-3.573,1.68-5.547v-90    c0-16.542-13.458-30-30-30s-30,13.458-30,30v90c0,1.974,0.584,3.904,1.68,5.547L312.68,215.672z M311,90.125    c0-5.514,4.486-10,10-10s10,4.486,10,10v86.972l-10,15l-10-15V90.125z"></path>
        </g>
    </g>
</svg>