<svg height='100px' width='100px'  fill="#979797" xmlns="http://www.w3.org/2000/svg" version="1.1" x="0px" y="0px" viewBox="0 0 32 32" enable-background="new 0 0 32 32">
    <g>
        <g>
            <path d="M26.769,24.654h-1.654V6.846c0-1.463-1.19-2.653-2.654-2.653h-0.577V2.538c0-0.276-0.224-0.5-0.5-0.5h-2.154    c-0.276,0-0.5,0.224-0.5,0.5v1.654H16h-2.731V2.538c0-0.276-0.224-0.5-0.5-0.5h-2.154c-0.276,0-0.5,0.224-0.5,0.5v1.654H9.539    c-1.463,0-2.654,1.19-2.654,2.653v17.809H5.231c-0.276,0-0.5,0.224-0.5,0.5v4.308c0,0.276,0.224,0.5,0.5,0.5h21.538    c0.276,0,0.5-0.224,0.5-0.5v-4.308C27.269,24.878,27.045,24.654,26.769,24.654z M19.731,3.038h1.154v1.154h-1.154V3.038z     M19.231,5.192h2.154h1.077c0.912,0,1.654,0.741,1.654,1.653v17.809H16.5V5.192H19.231z M11.115,3.038h1.154v1.154h-1.154V3.038z     M7.885,6.846c0-0.912,0.742-1.653,1.654-1.653h1.077h2.154H15.5v19.462H7.885V6.846z M26.269,28.962H5.731v-3.308h1.654H16h8.615    h1.654V28.962z"></path>
            <path d="M17.615,15.962h1.514l-0.921,3.687c-0.059,0.235,0.06,0.479,0.283,0.578c0.065,0.029,0.134,0.043,0.202,0.043    c0.163,0,0.321-0.08,0.416-0.223l4.308-6.462c0.102-0.153,0.112-0.351,0.025-0.514c-0.087-0.162-0.256-0.264-0.441-0.264h-1.22    l1.636-2.453c0.102-0.153,0.112-0.351,0.025-0.514C23.354,9.679,23.185,9.577,23,9.577h-3.231c-0.205,0-0.388,0.124-0.464,0.314    l-2.154,5.385c-0.062,0.154-0.042,0.328,0.05,0.466C17.294,15.88,17.449,15.962,17.615,15.962z M20.107,10.577h1.958L20.43,13.03    c-0.103,0.153-0.112,0.351-0.025,0.514c0.087,0.162,0.256,0.264,0.441,0.264h1.22l-2.188,3.283l0.376-1.508    c0.038-0.149,0.004-0.308-0.091-0.429s-0.24-0.192-0.394-0.192h-1.416L20.107,10.577z"></path>
            <path d="M14.452,8.5H9.067c-0.276,0-0.5,0.224-0.5,0.5v2.154c0,0.276,0.224,0.5,0.5,0.5h5.385c0.276,0,0.5-0.224,0.5-0.5V9    C14.952,8.724,14.729,8.5,14.452,8.5z M13.952,10.654H9.567V9.5h4.385V10.654z"></path>
            <path d="M14.452,12.808H9.067c-0.276,0-0.5,0.224-0.5,0.5v2.154c0,0.276,0.224,0.5,0.5,0.5h5.385c0.276,0,0.5-0.224,0.5-0.5    v-2.154C14.952,13.031,14.729,12.808,14.452,12.808z M13.952,14.962H9.567v-1.154h4.385V14.962z"></path>
            <path d="M14.452,17.115H9.067c-0.276,0-0.5,0.224-0.5,0.5v2.154c0,0.276,0.224,0.5,0.5,0.5h5.385c0.276,0,0.5-0.224,0.5-0.5    v-2.154C14.952,17.339,14.729,17.115,14.452,17.115z M13.952,19.27H9.567v-1.154h4.385V19.27z"></path>
        </g>
    </g>
</svg>