<svg height='100px' width='100px' fill="#979797" xmlns="http://www.w3.org/2000/svg" viewBox="0 0 8.4666665 8.4666669" version="1.1" x="0px" y="0px">
    <g transform="translate(0,-288.53332)">
        <path style="" d="m 5.1621074,293.05301 -0.232193,0.12685 a 0.79375,0.79375 0 0 1 -0.98288,1.12086 0.09474415,0.09474415 0 0 0 -0.09387,0.16194 l 0.8007961,0.64975 -0.154436,-0.5277 a 1.0583333,1.0583333 0 0 0 0.662581,-1.5317 z" fill="#979797" stroke="none"></path>
        <path style="" d="m 4.6134992,292.65815 -0.800797,-0.64975 0.154436,0.5277 a 1.0583333,1.0583333 0 0 0 -0.662581,1.5317 l 0.2321941,-0.12685 a 0.79375,0.79375 0 0 1 0.982879,-1.12087 0.09474415,0.09474415 0 0 0 0.093869,-0.16193 z" fill="#979797" stroke="none"></path>
        <path style="" d="m 1.8520834,289.06249 a 0.52916667,0.52916667 0 0 0 -0.5291667,0.52917 H 0.52916663 v 0.26458 a 0.264585,0.264585 0 0 1 0,0.52917 v 0.26458 H 1.3229167 v 4.23333 H 0.52916663 v 0.26459 a 0.264585,0.264585 0 0 1 0,0.52916 v 0.26459 H 1.3229167 a 0.52916667,0.52916667 0 0 0 0.5291667,0.52916 h 4.7625 a 0.52916667,0.52916667 0 0 0 0.5291667,-0.52916 h 0.79375 v -0.26459 a 0.264585,0.264585 0 0 1 0,-0.52916 v -0.26459 h -0.79375 v -4.23333 h 0.79375 v -0.26458 a 0.264585,0.264585 0 0 1 0,-0.52917 v -0.26458 h -0.79375 a 0.52916667,0.52916667 0 0 0 -0.5291667,-0.52917 z m 0,0.26458 h 4.7625 a 0.26458336,0.26458336 0 0 1 0.2645833,0.26459 v 6.35 a 0.26458336,0.26458336 0 0 1 -0.2645833,0.26458 h -4.7625 A 0.26458336,0.26458336 0 0 1 1.5875,295.94166 v -6.35 a 0.26458336,0.26458336 0 0 1 0.2645834,-0.26459 z m -0.86454733,0.52917 H 1.3229167 v 0.52917 H 0.98753607 a 0.52916667,0.52916667 0 0 0 0,-0.52917 z m 6.15621403,0 h 0.3353805 a 0.52916667,0.52916667 0 0 0 0,0.52917 H 7.1437501 Z m -6.15621403,5.29167 H 1.3229167 v 0.52916 H 0.98753607 a 0.52916667,0.52916667 0 0 0 0,-0.52916 z m 6.15621403,0 h 0.3353805 a 0.52916667,0.52916667 0 0 0 0,0.52916 H 7.1437501 Z" fill="#979797" stroke="none"></path>
        <path style="opacity:1;fill:#979797;fill-opacity:1;stroke:none;stroke-width:0.02645833;stroke-miterlimit:4;stroke-dasharray:none;stroke-opacity:1" d="m 2.1166667,289.85624 v 1.32292 h 4.2333334 v -1.32292 z m 0.2645833,0.26458 h 3.7041667 v 0.79375 H 2.38125 Z"></path>
    </g>
</svg>