<svg height='100px' width='100px' fill="#979797" xmlns="http://www.w3.org/2000/svg" version="1.1" x="0px" y="0px" viewBox="0 0 64 64" enable-background="new 0 0 64 64">
    <metadata>
        <sfw xmlns="http://ns.adobe.com/SaveForWeb/1.0/">
            <slices></slices>
            <sliceSourceBounds x="-7865" y="-230" width="16383" height="228" bottomLeftOrigin="true"></sliceSourceBounds>
        </sfw>
    </metadata>
    <g>
        <path d="M61,17h-6.133l-0.877-6.142C53.919,10.366,53.498,10,53,10h-4c-0.498,0-0.919,0.366-0.99,0.858L47.133,17H16.867   l-0.877-6.142C15.919,10.366,15.498,10,15,10h-4c-0.498,0-0.919,0.366-0.99,0.858L9.133,17H3c-0.552,0-1,0.448-1,1v37   c0,0.552,0.448,1,1,1h58c0.552,0,1-0.448,1-1V18C62,17.448,61.552,17,61,17z M49.867,12h2.266l0.714,5h-3.694L49.867,12z    M11.867,12h2.266l0.714,5h-3.694L11.867,12z M60,54H4V19h6h6h0.02H48h6h0.02H60V54z"></path>
        <path d="M17,25h-3v-3c0-0.552-0.448-1-1-1s-1,0.448-1,1v3H9c-0.552,0-1,0.448-1,1s0.448,1,1,1h3v3c0,0.552,0.448,1,1,1s1-0.448,1-1   v-3h3c0.552,0,1-0.448,1-1S17.552,25,17,25z"></path>
        <path d="M46.25,26c0,0.552,0.448,1,1,1h8c0.552,0,1-0.448,1-1s-0.448-1-1-1h-8C46.698,25,46.25,25.448,46.25,26z"></path>
    </g>
</svg>