<svg height='100px' width='100px'  fill="#979797" xmlns="http://www.w3.org/2000/svg" version="1.1" x="0px" y="0px" viewBox="0 0 100 100" enable-background="new 0 0 100 100">
    <path d="M94.63,79.831l-6.242-49.049c-0.209-1.637-1.729-2.976-3.379-2.976H53.927c-0.761,0.823-1.439,1.631-1.88,2.248  c0.177,0.227,0.394,0.482,0.63,0.752h7.391l0.766,13.011H48.184c0.075,0.872,0.221,1.932,0.419,3h12.406l0.824,14H37.636  l0.296-9.447c-0.202-0.073-0.396-0.141-0.572-0.196c-0.753,1.112-1.814,3.125-2.542,4.879c-0.01,0.023-0.024,0.044-0.035,0.067  l-0.146,4.697H10.841l1.292-10.048c-0.083-0.514-0.087-1.045,0.017-1.574c0.37-1.899,0.599-4.134,0.587-5.467  c-0.681-0.197-1.63-0.397-2.65-0.565L5.371,79.831c-0.21,1.637,0.968,2.976,2.617,2.976h34.989v9.011h-5.5  c-0.828,0-1.5,0.672-1.5,1.5s0.672,1.5,1.5,1.5h5.5h14h5.5c0.828,0,1.5-0.672,1.5-1.5s-0.672-1.5-1.5-1.5h-5.5v-9.011h35.031  C93.659,82.807,94.839,81.468,94.63,79.831z M34.04,79.807H8.399l2.056-15.989h24.087L34.04,79.807z M53.978,91.817h-8v-9h8V91.817z   M37.04,79.807l0.502-15.989h24.467l0.94,15.989H37.04z M63.067,30.807h21.941c0.141,0,0.385,0.216,0.402,0.354l1.611,12.656H63.833  L63.067,30.807z M64.009,46.817h23.396l1.782,14H64.833L64.009,46.817z M65.949,79.807l-0.94-15.989h24.559l2.035,15.989H65.949z"></path>
    <path d="M11.672,30.887c-0.006,0.881-2.401,3.905-5.026,6.346c-0.436,0.405-0.591,1.029-0.396,1.592  c0.195,0.562,0.705,0.955,1.298,1.002c3.573,0.283,7.329,1.17,7.879,1.859c0.514,0.716,0.355,4.571-0.334,8.088  c-0.114,0.584,0.127,1.181,0.615,1.521c0.489,0.34,1.132,0.359,1.64,0.048c2.129-1.302,5.804-3.136,7.306-3.136  c0.113,0,0.161,0.013,0.163,0.013c0.837,0.277,2.974,3.49,4.483,6.741c0.246,0.531,0.777,0.869,1.36,0.869c0.011,0,0.021,0,0.031,0  c0.595-0.013,1.126-0.376,1.354-0.926c1.373-3.311,3.377-6.609,4.201-6.92c0,0,0.067-0.021,0.232-0.021  c1.643,0,5.385,1.74,7.356,2.837c0.521,0.29,1.162,0.244,1.636-0.116c0.475-0.359,0.691-0.965,0.553-1.544  c-0.835-3.485-1.151-7.33-0.665-8.067c0.522-0.71,4.239-1.751,7.799-2.183c0.591-0.072,1.083-0.486,1.255-1.056  s-0.009-1.188-0.461-1.574c-2.725-2.328-5.244-5.253-5.285-6.134c0.006-0.881,2.402-3.903,5.027-6.341  c0.436-0.405,0.591-1.029,0.396-1.592c-0.194-0.562-0.704-0.955-1.297-1.003c-3.575-0.287-7.332-1.176-7.881-1.863  c-0.515-0.716-0.356-4.571,0.334-8.089c0.114-0.584-0.127-1.181-0.616-1.521c-0.488-0.34-1.132-0.358-1.639-0.048  c-2.13,1.303-5.804,3.139-7.307,3.139c-0.113,0-0.161-0.013-0.161-0.013c-0.837-0.277-2.974-3.492-4.483-6.744  c-0.25-0.54-0.794-0.859-1.392-0.869c-0.595,0.013-1.127,0.376-1.354,0.926c-1.372,3.312-3.374,6.611-4.201,6.924  c0,0-0.066,0.021-0.232,0.021c-1.645,0-5.388-1.741-7.361-2.839c-0.52-0.29-1.162-0.244-1.636,0.116  c-0.474,0.359-0.69,0.966-0.552,1.544c0.836,3.485,1.154,7.331,0.671,8.065c-0.522,0.711-4.241,1.752-7.802,2.184  c-0.591,0.072-1.084,0.486-1.256,1.056s0.009,1.188,0.461,1.574C9.11,27.082,11.63,30.007,11.672,30.887z M17.444,21.653  c1.058-1.522,0.836-4.749,0.405-7.404c1.894,0.867,4.327,1.804,6.011,1.804c0.457,0,0.855-0.061,1.216-0.187  c1.746-0.604,3.461-3.337,4.675-5.737c1.311,2.348,3.136,5.005,4.904,5.538c0.31,0.094,0.656,0.142,1.029,0.142  c1.717,0,4.196-1.062,6.124-2.045c-0.319,2.67-0.406,5.899,0.713,7.375c1.116,1.473,4.243,2.262,6.898,2.677  c-1.826,1.97-3.79,4.524-3.752,6.37c0.038,1.849,2.105,4.323,4.013,6.219c-2.637,0.522-5.728,1.438-6.782,2.953  c-1.061,1.522-0.841,4.751-0.411,7.408c-1.893-0.867-4.326-1.803-6.008-1.803c-0.457,0-0.854,0.061-1.218,0.187  c-1.745,0.608-3.459,3.338-4.672,5.735c-1.312-2.347-3.137-5.005-4.905-5.537c-0.311-0.094-0.657-0.142-1.031-0.142  c-1.717,0-4.196,1.061-6.124,2.044c0.319-2.671,0.406-5.9-0.711-7.376c-1.118-1.474-4.243-2.262-6.898-2.675  c1.826-1.971,3.788-4.526,3.751-6.373c-0.038-1.847-2.106-4.322-4.014-6.218C13.295,24.086,16.388,23.171,17.444,21.653z"></path>
    <path d="M29.583,40.294c0.201,0.013,0.4,0.019,0.6,0.019c5.171,0,9.465-4.05,9.776-9.22c0.157-2.617-0.715-5.138-2.456-7.098  c-1.738-1.959-4.135-3.122-6.746-3.275c-5.436-0.313-10.054,3.833-10.377,9.2c-0.155,2.616,0.716,5.137,2.455,7.096  C24.573,38.975,26.97,40.14,29.583,40.294z M23.375,30.099c0.216-3.587,3.197-6.397,6.787-6.397c0.138,0,0.276,0.005,0.417,0.013  c1.813,0.107,3.475,0.914,4.681,2.272c1.208,1.361,1.813,3.11,1.705,4.927c-0.225,3.727-3.394,6.611-7.202,6.387  c-1.814-0.107-3.478-0.916-4.684-2.275C23.872,33.664,23.267,31.915,23.375,30.099z"></path>
</svg>