<svg height='100px' width='100px'  fill="#979797" xmlns="http://www.w3.org/2000/svg" xmlns:xlink="http://www.w3.org/1999/xlink" viewBox="0 0 24 24" version="1.1" x="0px" y="0px"><title>symbol/lightning-calendar</title><desc>Created with Sketch.</desc><g stroke="none" stroke-width="1" fill="none" fill-rule="evenodd"><path d="M17,4 L17,4.5 C17,4.77614237 16.7761424,5 16.5,5 C16.2238576,5 16,4.77614237 16,4.5 L16,4 L12,4 L12,4.5 C12,4.77614237 11.7761424,5 11.5,5 C11.2238576,5 11,4.77614237 11,4.5 L11,4 L7,4 L7,4.5 C7,4.77614237 6.77614237,5 6.5,5 C6.22385763,5 6,4.77614237 6,4.5 L6,4 L4.5,4 C4.22356503,4 4,4.22371954 4,4.5 L4,6 L19,6 L19,4.5 C19,4.22371954 18.776435,4 18.5,4 L17,4 Z M17,3 L18.5,3 C19.3288744,3 20,3.67158938 20,4.5 L20,18.5 C20,19.3284106 19.3288744,20 18.5,20 L4.5,20 C3.67112557,20 3,19.3284106 3,18.5 L3,4.5 C3,3.67158938 3.67112557,3 4.5,3 L6,3 L6,1.5 C6,1.22385763 6.22385763,1 6.5,1 C6.77614237,1 7,1.22385763 7,1.5 L7,3 L11,3 L11,1.5 C11,1.22385763 11.2238576,1 11.5,1 C11.7761424,1 12,1.22385763 12,1.5 L12,3 L16,3 L16,1.5 C16,1.22385763 16.2238576,1 16.5,1 C16.7761424,1 17,1.22385763 17,1.5 L17,3 Z M19,7 L4,7 L4,18.5 C4,18.7762805 4.22356503,19 4.5,19 L18.5,19 C18.776435,19 19,18.7762805 19,18.5 L19,7 Z M12.8897309,11.8173759 L14.6856953,12.5357617 C15.0862629,12.6959887 15.1094845,13.2542747 14.7236068,13.4472136 L7.7236068,16.9472136 C7.21628543,17.2008743 6.74537385,16.5475194 7.14644661,16.1464466 L10.1102691,13.1826241 L8.31430466,12.4642383 C7.91373715,12.3040113 7.89051547,11.7457253 8.2763932,11.5527864 L15.2763932,8.0527864 C15.7837146,7.79912572 16.2546261,8.45248063 15.8535534,8.85355339 L12.8897309,11.8173759 Z M11.3535534,13.3535534 L10.0322476,14.6748592 L13.2805184,13.0507238 L11.8143047,12.4642383 C11.4810208,12.3309248 11.3926252,11.9002681 11.6464466,11.6464466 L12.9677524,10.3251408 L9.71948164,11.9492762 L11.1856953,12.5357617 C11.5189792,12.6690752 11.6073748,13.0997319 11.3535534,13.3535534 Z" fill="#979797" fill-rule="nonzero"></path></g></svg>