<svg height='100px' width='100px'  fill="#979797" xmlns="http://www.w3.org/2000/svg" data-name="Layer 2" viewBox="0 0 100 100" x="0px" y="0px">
    <path d="M63.9,30.25V27.77A6.91,6.91,0,0,0,57,20.88H54.52V18.75a1,1,0,0,0-1-1H22.28a1,1,0,0,0-1,1v2.13H18.79a6.9,6.9,0,0,0-6.89,6.89v2.48h2V27.77a4.89,4.89,0,0,1,4.89-4.89h2.49V25a1,1,0,0,0,1,1H53.52a1,1,0,0,0,1-1V22.88H57a4.9,4.9,0,0,1,4.9,4.89v2.48Z"></path>
    <path d="M92.35,32.25H7.65v47.8h84.7ZM51.55,72.38a1,1,0,0,1-1,1H15.86a1,1,0,0,1-1-1V64.71H11.53a1,1,0,0,1-1-1V59.38a1,1,0,0,1,1-1h3.33v-11H11.53a1,1,0,0,1-1-1V42a1,1,0,0,1,1-1h3.33V37.7a1,1,0,0,1,1-1H50.55a1,1,0,0,1,1,1ZM55.65,45a7.25,7.25,0,1,1,7.25,7.25A7.26,7.26,0,0,1,55.65,45ZM86.23,72.38a1,1,0,0,1-1,1h-26a1,1,0,0,1-1-1v-13a1,1,0,0,1,1-1h26a1,1,0,0,1,1,1ZM81.65,52.21A7.25,7.25,0,1,1,88.9,45,7.26,7.26,0,0,1,81.65,52.21Z"></path>
    <polygon points="33.21 84.39 67.89 84.39 85.23 84.39 92.35 84.39 92.35 82.05 7.64 82.05 7.64 84.39 15.86 84.39 33.21 84.39"></polygon>
    <path d="M16.86,42V71.38H49.55V38.7H16.86Zm5.53,3.21H43.15v5.69H22.39Z"></path>
    <path d="M60.22,71.38h24v-11h-24ZM66,62.71h12.5a1,1,0,0,1,0,2H66a1,1,0,0,1,0-2Zm0,3.62h12.5a1,1,0,0,1,0,2H66a1,1,0,0,1,0-2Z"></path>
    <rect x="12.53" y="43.03" width="2.34" height="2.34"></rect>
    <rect x="12.53" y="60.38" width="2.34" height="2.34"></rect>
    <polygon points="19.16 89.63 29.91 89.63 31.57 86.39 17.5 86.39 19.16 89.63"></polygon>
    <polygon points="71.19 89.63 81.94 89.63 83.6 86.39 69.53 86.39 71.19 89.63"></polygon>
    <path d="M81.65,39.71A5.25,5.25,0,1,0,86.9,45,5.26,5.26,0,0,0,81.65,39.71Zm1,5.25a1,1,0,1,1-2,0V41.84a1,1,0,0,1,2,0Z"></path>
    <path d="M68.15,45a5.25,5.25,0,1,0-5.25,5.25A5.26,5.26,0,0,0,68.15,45Zm-5.83-.82a1,1,0,0,1,1.39.25l1.7,2.41a1,1,0,0,1-.25,1.39.92.92,0,0,1-.57.18,1,1,0,0,1-.82-.42l-1.69-2.42A1,1,0,0,1,62.32,44.14Z"></path>
    <path d="M78.77,28.12a8.34,8.34,0,0,1,.84-3.66l-5.82-5.81a16.4,16.4,0,0,0-3,9.47v2.13h8Z"></path>
    <path d="M86.27,19.68v-8a16.5,16.5,0,0,0-11.22,5.42l5.66,5.67A8.51,8.51,0,0,1,86.27,19.68Z"></path>
    <polygon points="88.27 10.63 88.27 20.63 88.27 20.88 90.02 20.88 90.02 10.38 88.27 10.38 88.27 10.63"></polygon>
</svg>