<svg height='100px' width='100px'  fill="#979797" xmlns="http://www.w3.org/2000/svg" xmlns:xlink="http://www.w3.org/1999/xlink" version="1.1" x="0px" y="0px" viewBox="0 0 60 60" style="enable-background:new 0 0 60 60;" xml:space="preserve"><path d="M37.08,5H21.92c-0.55,0-1,0.45-1,1v1.95h-8.85c-0.55,0-1,0.45-1,1V54c0,0.55,0.45,1,1,1h35.85c0.55,0,1-0.45,1-1V8.95  c0-0.55-0.45-1-1-1h-9.85V6C38.08,5.45,37.63,5,37.08,5z M22.92,7h13.16v3.91H22.92V7z M46.92,9.95V53H13.08V9.95h7.85v1.95  c0,0.55,0.45,1,1,1h15.16c0.55,0,1-0.45,1-1V9.95H46.92z"></path><path d="M22.79,18.57c0,0.55,0.45,1,1,1h18.99c0.55,0,1-0.45,1-1s-0.45-1-1-1H23.79C23.24,17.57,22.79,18.02,22.79,18.57z"></path><path d="M19.02,17.57h-1.8c-0.55,0-1,0.45-1,1s0.45,1,1,1h1.8c0.55,0,1-0.45,1-1S19.58,17.57,19.02,17.57z"></path><path d="M42.78,24.76H23.79c-0.55,0-1,0.45-1,1s0.45,1,1,1h18.99c0.55,0,1-0.45,1-1S43.34,24.76,42.78,24.76z"></path><path d="M19.02,24.76h-1.8c-0.55,0-1,0.45-1,1s0.45,1,1,1h1.8c0.55,0,1-0.45,1-1S19.58,24.76,19.02,24.76z"></path><path d="M42.78,31.95H23.79c-0.55,0-1,0.45-1,1s0.45,1,1,1h18.99c0.55,0,1-0.45,1-1S43.34,31.95,42.78,31.95z"></path><path d="M19.02,31.95h-1.8c-0.55,0-1,0.45-1,1s0.45,1,1,1h1.8c0.55,0,1-0.45,1-1S19.58,31.95,19.02,31.95z"></path><path d="M42.78,39.14H23.79c-0.55,0-1,0.45-1,1s0.45,1,1,1h18.99c0.55,0,1-0.45,1-1S43.34,39.14,42.78,39.14z"></path><path d="M19.02,39.14h-1.8c-0.55,0-1,0.45-1,1s0.45,1,1,1h1.8c0.55,0,1-0.45,1-1S19.58,39.14,19.02,39.14z"></path><path d="M42.78,46.34H23.79c-0.55,0-1,0.45-1,1s0.45,1,1,1h18.99c0.55,0,1-0.45,1-1S43.34,46.34,42.78,46.34z"></path><path d="M19.02,46.34h-1.8c-0.55,0-1,0.45-1,1s0.45,1,1,1h1.8c0.55,0,1-0.45,1-1S19.58,46.34,19.02,46.34z"></path></svg>