<svg height='100px' width='100px'  fill="#979797" xmlns="http://www.w3.org/2000/svg" xmlns:xlink="http://www.w3.org/1999/xlink" version="1.1" x="0px" y="0px" viewBox="0 0 64 64" style="enable-background:new 0 0 64 64;" xml:space="preserve">
    <g>
        <path d="M48,25c4.963,0,9-4.037,9-9s-4.037-9-9-9s-9,4.037-9,9S43.037,25,48,25z M48,9c3.859,0,7,3.141,7,7s-3.141,7-7,7   s-7-3.141-7-7S44.141,9,48,9z"></path>
        <path d="M59,49c-0.732,0-1.409,0.212-2,0.556V41h2.767l-6.351-10.584l0.137,0.082l0.866-2.584c0.863-2.577,2.918-4.632,5.495-5.496   l2.584-0.865l-0.641-1.067c-1.66-2.767-1.66-6.204,0-8.971l0.642-1.069l-2.492-0.83c-2.635-0.879-4.71-2.983-5.552-5.63   l-0.79-2.489l-1.193,0.705c-2.754,1.626-6.17,1.614-8.954-0.057l-1.07-0.647l-0.859,2.577c-0.863,2.59-2.924,4.65-5.514,5.514   l-2.573,0.857l0.642,1.069c1.375,2.291,1.593,5.036,0.691,7.485H14c-0.971,0-1.86,0.49-2.412,1.366L0.314,41H3v22h60V53   C63,50.794,61.206,49,59,49z M47,49c-2.206,0-4,1.794-4,4h-4c0-2.206-1.794-4-4-4v-4h12V49z M43,57h-4v-2h4V57z M35,51   c1.103,0,2,0.897,2,2v8h-4v-8C33,51.897,33.897,51,35,51z M39,59h4v2h-4V59z M45,53c0-1.103,0.897-2,2-2s2,0.897,2,2v8h-4V53z    M51,55h4v2h-4V55z M55,53h-4c0-1.474-0.81-2.75-2-3.444V43H33v6.556c-1.19,0.694-2,1.97-2,3.444v8h-6V41h30V53z M36.431,11.577   l0.276-0.093c3.184-1.061,5.717-3.594,6.777-6.777l0.091-0.271c2.834,1.3,6.092,1.303,8.926,0.004l0.048,0.151   c1.035,3.254,3.586,5.842,6.825,6.921l0.195,0.065c-1.277,2.813-1.277,6.034,0.001,8.847l-0.291,0.098   c-3.17,1.063-5.695,3.589-6.757,6.757l-0.098,0.292c-1.407-0.64-2.916-0.959-4.425-0.959s-3.017,0.319-4.423,0.958l-0.093-0.276   c-1.061-3.184-3.594-5.717-6.777-6.777l-0.276-0.093C37.708,17.61,37.708,14.39,36.431,11.577z M35.425,25l2.333,4h-4.684l-2.333-4   H35.425z M28.425,25l2.333,4h-4.684l-2.333-4H28.425z M31.925,31l2.333,4h-4.684l-2.333-4H31.925z M36.575,35l-2.333-4h4.684   l2.333,4H36.575z M43.575,35l-5.833-10h2.164c0.736,0.852,1.32,1.838,1.683,2.926l0.857,2.573l1.069-0.642   c0.439-0.263,0.898-0.47,1.366-0.649L48.259,35H43.575z M37.404,23H20.259l8.167,14h23.315l-4.849-8.313   c1.093-0.14,2.205-0.068,3.279,0.21L56.233,39H26.593l-9.838-18h17.078l-0.333,0.554l2.573,0.858   C36.538,22.567,36.978,22.772,37.404,23z M13.311,21.38c0.303-0.475,1.109-0.42,1.346-0.055L24.314,39h-2.692L14,23.507L6.377,39   H3.686L13.311,21.38z M19.393,39H8.607L14,28.038L19.393,39z M5,41h18v20h-2V50c0-2.757-2.243-5-5-5h-4c-2.757,0-5,2.243-5,5v11H5   V41z M9,53h2v-2H9v-1c0-1.654,1.346-3,3-3h4c1.654,0,3,1.346,3,3v11H9V53z M51,61v-2h4v2H51z M61,61h-4v-7v-1c0-1.103,0.897-2,2-2   s2,0.897,2,2V61z"></path>
    </g>
</svg>