<?xml version="1.0" encoding="UTF-8"?>
<svg width="128pt" height="128pt" version="1.1" viewBox="0 0 128 128" xmlns="http://www.w3.org/2000/svg">
    <path d="m96.383 87.297c6.1445-8.0664 9.8555-18.176 9.8555-29.059 0-26.496-21.504-48-48-48-26.496 0-48 21.504-48 48 0 26.496 21.504 48 48 48 10.879 0 20.992-3.7109 29.055-9.8555l22.145 22.145c1.2812 1.2812 2.9453 1.9219 4.4805 1.9219 1.5352 0 3.3281-0.64062 4.4805-1.9219 2.5586-2.5586 2.5586-6.5273 0-9.0898zm-38.145 6.1445c-19.453 0-35.199-15.875-35.199-35.203s15.746-35.199 35.199-35.199c19.457 0 35.203 15.746 35.203 35.199 0 19.457-15.875 35.203-35.203 35.203z" fill="#969696"/>
</svg>
