<svg height='100px' width='100px'  fill="#979797" xmlns="http://www.w3.org/2000/svg" xmlns:xlink="http://www.w3.org/1999/xlink" version="1.1" x="0px" y="0px" viewBox="0 0 64 64" enable-background="new 0 0 64 64" xml:space="preserve">
    <g>
        <g>
            <circle cx="32" cy="12.413" r="3.226"></circle>
            <path d="M32,16.639c-2.33,0-4.226-1.896-4.226-4.226S29.67,8.187,32,8.187s4.227,1.896,4.227,4.226S34.33,16.639,32,16.639z     M32,10.187c-1.228,0-2.226,0.999-2.226,2.226s0.999,2.226,2.226,2.226s2.227-0.999,2.227-2.226S33.228,10.187,32,10.187z"></path>
        </g>
        <g>
            <path d="M32.941,15.583L32,15.913l-0.941-0.33L13.729,63.29l1.354,0.476L15.255,64l0.165-0.117l0.192,0.067l0.1-0.274L32,52.141    l16.288,11.535l0.101,0.274l0.191-0.067L48.745,64l0.172-0.234l1.354-0.476L32.941,15.583z M35.582,31.748L32,34.824l-3.582-3.076    L32,27.615L35.582,31.748z M33.313,26.099l0.935-1.077l1.349,3.711L33.313,26.099z M28.405,28.732l1.348-3.711l0.934,1.077    L28.405,28.732z M30.48,36.13l-6.921,5.942l3.291-9.062L30.48,36.13z M32,37.436l7.839,6.73L32,49.718l-7.839-5.552L32,37.436z     M33.52,36.13l3.631-3.118l3.291,9.062L33.52,36.13z M33.473,22.886L32,24.584l-1.472-1.698L32,18.835L33.473,22.886z     M16.897,60.413l5.479-15.087l7.912,5.604L16.897,60.413z M33.711,50.93l7.912-5.604l5.479,15.087L33.711,50.93z"></path>
            <path d="M25.009,19.263l1.414-1.391c-1.394-1.37-2.162-3.192-2.162-5.13s0.768-3.762,2.162-5.133l-1.414-1.39    c-1.772,1.741-2.748,4.059-2.748,6.522C22.262,15.206,23.237,17.521,25.009,19.263z"></path>
            <path d="M21.946,22.271l1.414-1.391c-2.212-2.174-3.43-5.064-3.43-8.14c0-3.076,1.218-5.967,3.43-8.143l-1.414-1.391    c-2.59,2.548-4.017,5.934-4.016,9.534C17.931,16.342,19.356,19.727,21.946,22.271z"></path>
            <path d="M20.097,24.09c-6.365-6.259-6.365-16.441,0-22.7L18.683,0c-7.145,7.024-7.145,18.455,0,25.48L20.097,24.09z"></path>
            <path d="M38.991,19.263c1.771-1.742,2.747-4.057,2.747-6.521c0-2.464-0.975-4.781-2.747-6.522l-1.414,1.39    c1.396,1.371,2.161,3.194,2.161,5.133c0,1.938-0.768,3.76-2.161,5.13L38.991,19.263z"></path>
            <path d="M40.641,20.881l1.414,1.391c2.59-2.545,4.016-5.93,4.016-9.529c0-3.601-1.426-6.986-4.016-9.534l-1.414,1.39    c2.211,2.176,3.43,5.067,3.43,8.143C44.07,15.818,42.852,18.707,40.641,20.881z"></path>
            <path d="M43.902,24.09l1.414,1.391c7.146-7.025,7.146-18.456,0-25.48l-1.414,1.39C50.27,7.648,50.27,17.831,43.902,24.09z"></path>
        </g>
    </g>
</svg>